<svg xmlns="http://www.w3.org/2000/svg" version="1.1" xmlns:xlink="http://www.w3.org/1999/xlink" xmlns:svgjs="http://svgjs.dev/svgjs" width="700" height="700" preserveAspectRatio="none" viewBox="0 0 700 700"><g mask="url(&quot;#SvgjsMask1131&quot;)" fill="none"><rect width="700" height="700" x="0" y="0" fill="rgba(0, 191, 99, 1)"></rect><path d="M0,288.554C60.156,286.985,122.567,301.418,176.299,274.326C232.476,246.001,273.637,194.127,300.297,137.141C327.108,79.831,348.991,12.219,326.604,-46.959C304.827,-104.524,235.323,-123.884,187.087,-162.112C148.964,-192.325,117.232,-228.184,72.84,-248.071C23.196,-270.311,-29.107,-289.406,-83.147,-283.172C-142.693,-276.303,-208.418,-259.677,-244.097,-211.511C-279.47,-163.757,-258.234,-97.134,-264.711,-38.06C-270.918,18.551,-295.504,73.331,-281.375,128.5C-265.835,189.179,-236.756,252.711,-182.311,283.681C-128.377,314.36,-62.028,290.172,0,288.554" fill="#00b45d"></path><path d="M700 948.049C745.044 940.033 777.861 905.5029999999999 818.22 883.953 863.0509999999999 860.015 920.867 855.716 950.392 814.35 981.381 770.932 989.8679999999999 712.04 978.049 660.023 966.567 609.486 921.9490000000001 576.249 887.4970000000001 537.533 853.538 499.372 828.1279999999999 443.807 777.81 435.002 727.415 426.184 689.528 483.18399999999997 639.556 494.148 583.705 506.401 515.902 465.911 471.685 502.164 428.563 537.518 435.91 606.139 434.958 661.893 434.097 712.288 446.52099999999996 760.364 466.485 806.643 486.818 853.777 507.337 904.874 551.2470000000001 931.4639999999999 594.806 957.841 649.865 956.971 700 948.049" fill="#00cb69"></path></g><defs><mask id="SvgjsMask1131"><rect width="700" height="700" fill="#ffffff"></rect></mask></defs></svg>